# xmcd
#
# Track frame offsets:
#	150
#	11419
#	22737
#	35089
#	47881
#	58476
#	71483
#	94676
#	108650
#	122499
#	133077
#	143952
#	155174
#	166778
#	179849
#	192216
#	207047
#	218042
#	232091
#	244535
#	259204
#
# Disc length: 3592 seconds
#
# Revision: 0
# Processed by: cddbd v1.5.1PL2 Copyright (c) Steve Scherf et al.
# Submitted via: EasyCDDAExtractor 9.0.0.1
#
DISCID=360e0615
DTITLE=Various Artist - God's Country - 50 Years Of Country Gospel
DYEAR=2004
DGENRE=Country
TTITLE0=Loretta Lynn - Living In God's Country
TTITLE1=The Statler Brothers - Turn Your Radio On
TTITLE2=Hank Williams - I Saw The Light
TTITLE3=Ernest Tubb - What A Friend We Have In Jesus
TTITLE4=George Jones - The Good Old Bible
TTITLE5=Patsy Cline - Life's Railway To Heaven
TTITLE6=Willie Nelson - It's No Secret (What God Can Do)
TTITLE7=Webb Pierce - The Old Country Church
TTITLE8=The Jordanaires - (There Will Be) Peace In The Valley
TTITLE9=Kitty Wells - Lord I'm Coming Home
TTITLE10=Roy Acuff - Hold To God's Unchanging Hands
TTITLE11=Jimmie Davis With The Anita Kerr Singers - Near The Cross
TTITLE12=Conway Twitty - You'll Never Walk Alone
TTITLE13=Barbara Mandrell - Swing Low Sweet Chariot
TTITLE14=Jerry Lee Lewis - The Old Rugged Cross
TTITLE15=The Statler Brothers - A Beautiful Life
TTITLE16=Hank Williams - The Prodigal Son
TTITLE17=The Osborne Brothers - Rock Of Ages
TTITLE18=Red Foley And The Jordanaires - The World Is Not My Home
TTITLE19=Bill Monroe And Jimmy Martin - Precious Memories
TTITLE20=Kitty Wells - Dust On The Bible
EXTD=
EXTT0=
EXTT1=
EXTT2=
EXTT3=
EXTT4=
EXTT5=
EXTT6=
EXTT7=
EXTT8=
EXTT9=
EXTT10=
EXTT11=
EXTT12=
EXTT13=
EXTT14=
EXTT15=
EXTT16=
EXTT17=
EXTT18=
EXTT19=
EXTT20=
PLAYORDER=
